<svg class="animated" id="freepik_stories-coronavirus-delivery-preventions" xmlns="http://www.w3.org/2000/svg" viewBox="0 0 500 500" version="1.1" xmlns:xlink="http://www.w3.org/1999/xlink" xmlns:svgjs="http://svgjs.com/svgjs"><style>svg#freepik_stories-coronavirus-delivery-preventions:not(.animated) .animable {opacity: 0;}svg#freepik_stories-coronavirus-delivery-preventions.animated #freepik--Character--inject-29 {animation: 1.5s Infinite  linear wind;animation-delay: 0s;}            @keyframes wind {                0% {                    transform: rotate( 0deg );                }                25% {                    transform: rotate( 1deg );                }                75% {                    transform: rotate( -1deg );                }            }        </style><g id="freepik--background-complete--inject-29" class="animable" style="transform-origin: 250px 216.992px;"><rect y="382.4" width="500" height="0.25" style="fill: rgb(235, 235, 235); transform-origin: 250px 382.525px;" id="eliwzz1s254i" class="animable"></rect><path d="M237,337.8H43.91a5.71,5.71,0,0,1-5.7-5.71V60.66A5.71,5.71,0,0,1,43.91,55H237a5.71,5.71,0,0,1,5.71,5.71V332.09A5.71,5.71,0,0,1,237,337.8ZM43.91,55.2a5.46,5.46,0,0,0-5.45,5.46V332.09a5.46,5.46,0,0,0,5.45,5.46H237a5.47,5.47,0,0,0,5.46-5.46V60.66A5.47,5.47,0,0,0,237,55.2Z" style="fill: rgb(235, 235, 235); transform-origin: 140.46px 196.4px;" id="elrkyoq483z8q" class="animable"></path><path d="M453.31,337.8H260.21a5.72,5.72,0,0,1-5.71-5.71V60.66A5.72,5.72,0,0,1,260.21,55h193.1A5.71,5.71,0,0,1,459,60.66V332.09A5.71,5.71,0,0,1,453.31,337.8ZM260.21,55.2a5.47,5.47,0,0,0-5.46,5.46V332.09a5.47,5.47,0,0,0,5.46,5.46h193.1a5.47,5.47,0,0,0,5.46-5.46V60.66a5.47,5.47,0,0,0-5.46-5.46Z" style="fill: rgb(235, 235, 235); transform-origin: 356.75px 196.4px;" id="eler10uonwmon" class="animable"></path><rect x="174.44" y="391.92" width="26" height="0.25" style="fill: rgb(235, 235, 235); transform-origin: 187.44px 392.045px;" id="elaiq062ylrx" class="animable"></rect><rect x="52.46" y="389.21" width="54.1" height="0.25" style="fill: rgb(235, 235, 235); transform-origin: 79.51px 389.335px;" id="ely4xhq4dipy" class="animable"></rect><rect x="147.12" y="401.21" width="26.32" height="0.25" style="fill: rgb(235, 235, 235); transform-origin: 160.28px 401.335px;" id="elkgslmj2luvi" class="animable"></rect><rect x="258.23" y="399.53" width="38.83" height="0.25" style="fill: rgb(235, 235, 235); transform-origin: 277.645px 399.655px;" id="eltjr99gag4ld" class="animable"></rect><rect x="305.96" y="399.53" width="10.69" height="0.25" style="fill: rgb(235, 235, 235); transform-origin: 311.305px 399.655px;" id="el51pb2q70gzw" class="animable"></rect><rect x="395.35" y="395.31" width="54.56" height="0.25" style="fill: rgb(235, 235, 235); transform-origin: 422.63px 395.435px;" id="elbnsmycwo7am" class="animable"></rect><path d="M115.64,158.67h74a5.67,5.67,0,0,1,5.67,5.67V382.4a0,0,0,0,1,0,0H110a0,0,0,0,1,0,0V164.33A5.67,5.67,0,0,1,115.64,158.67Z" style="fill: rgb(245, 245, 245); transform-origin: 152.655px 270.535px;" id="elx4wnts5132p" class="animable"></path><rect x="117.06" y="171.89" width="11" height="24.49" style="fill: rgb(235, 235, 235); transform-origin: 122.56px 184.135px;" id="el3xtlmumvwoy" class="animable"></rect><rect x="177.22" y="171.89" width="11" height="24.49" style="fill: rgb(235, 235, 235); transform-origin: 182.72px 184.135px;" id="elm61hlovwt1o" class="animable"></rect><rect x="137.11" y="171.89" width="11" height="24.49" style="fill: rgb(235, 235, 235); transform-origin: 142.61px 184.135px;" id="el04kcz33n1o6g" class="animable"></rect><rect x="157.17" y="171.89" width="11" height="24.49" style="fill: rgb(235, 235, 235); transform-origin: 162.67px 184.135px;" id="eluc7ts7t4d5" class="animable"></rect><rect x="117.06" y="210.55" width="11" height="24.49" style="fill: rgb(235, 235, 235); transform-origin: 122.56px 222.795px;" id="ellbyge8furh" class="animable"></rect><rect x="177.22" y="210.55" width="11" height="24.49" style="fill: rgb(235, 235, 235); transform-origin: 182.72px 222.795px;" id="elkm117itydkh" class="animable"></rect><rect x="137.11" y="210.55" width="11" height="24.49" style="fill: rgb(235, 235, 235); transform-origin: 142.61px 222.795px;" id="el4vynu9ze1e2" class="animable"></rect><rect x="157.17" y="210.55" width="11" height="24.49" style="fill: rgb(235, 235, 235); transform-origin: 162.67px 222.795px;" id="el3chbn3pax5p" class="animable"></rect><rect x="117.06" y="249.21" width="11" height="24.49" style="fill: rgb(235, 235, 235); transform-origin: 122.56px 261.455px;" id="elo3h0qecvl4" class="animable"></rect><rect x="177.22" y="249.21" width="11" height="24.49" style="fill: rgb(235, 235, 235); transform-origin: 182.72px 261.455px;" id="ell0kkxnv0jcr" class="animable"></rect><rect x="137.11" y="249.21" width="11" height="24.49" style="fill: rgb(235, 235, 235); transform-origin: 142.61px 261.455px;" id="elagt936nrdwg" class="animable"></rect><rect x="157.17" y="249.21" width="11" height="24.49" style="fill: rgb(235, 235, 235); transform-origin: 162.67px 261.455px;" id="el6lswlbl2pff" class="animable"></rect><rect x="117.06" y="287.87" width="11" height="24.49" style="fill: rgb(235, 235, 235); transform-origin: 122.56px 300.115px;" id="eli2y13003jgm" class="animable"></rect><rect x="177.22" y="287.87" width="11" height="24.49" style="fill: rgb(235, 235, 235); transform-origin: 182.72px 300.115px;" id="elag5k7p8kxpf" class="animable"></rect><rect x="137.11" y="287.87" width="11" height="24.49" style="fill: rgb(235, 235, 235); transform-origin: 142.61px 300.115px;" id="elyhfb2r04vpl" class="animable"></rect><rect x="157.17" y="287.87" width="11" height="24.49" style="fill: rgb(235, 235, 235); transform-origin: 162.67px 300.115px;" id="el3bqbqvhh93o" class="animable"></rect><rect x="117.06" y="326.53" width="11" height="24.49" style="fill: rgb(235, 235, 235); transform-origin: 122.56px 338.775px;" id="elk8q5a9w8lxj" class="animable"></rect><rect x="177.22" y="326.53" width="11" height="24.49" style="fill: rgb(235, 235, 235); transform-origin: 182.72px 338.775px;" id="eleafgr5zecyn" class="animable"></rect><rect x="137.11" y="326.53" width="11" height="24.49" style="fill: rgb(235, 235, 235); transform-origin: 142.61px 338.775px;" id="elj5ipyucj84j" class="animable"></rect><rect x="157.17" y="326.53" width="11" height="24.49" style="fill: rgb(235, 235, 235); transform-origin: 162.67px 338.775px;" id="eldchn33fwx8" class="animable"></rect><path d="M378,179h53a4.61,4.61,0,0,1,4.61,4.61V382.4a0,0,0,0,1,0,0H373.44a0,0,0,0,1,0,0V183.62A4.61,4.61,0,0,1,378,179Z" style="fill: rgb(245, 245, 245); transform-origin: 404.525px 280.7px;" id="ele5vu92kekup" class="animable"></path><rect x="381.32" y="191.02" width="10" height="22.26" style="fill: rgb(235, 235, 235); transform-origin: 386.32px 202.15px;" id="el84vy4hj3dqw" class="animable"></rect><rect x="399.55" y="191.02" width="10" height="22.26" style="fill: rgb(235, 235, 235); transform-origin: 404.55px 202.15px;" id="elu76420tzxpq" class="animable"></rect><rect x="417.78" y="191.02" width="10" height="22.26" style="fill: rgb(235, 235, 235); transform-origin: 422.78px 202.15px;" id="elywejjf8w9ha" class="animable"></rect><rect x="381.32" y="226.17" width="10" height="22.26" style="fill: rgb(235, 235, 235); transform-origin: 386.32px 237.3px;" id="elojc7027v8lt" class="animable"></rect><rect x="399.55" y="226.17" width="10" height="22.26" style="fill: rgb(235, 235, 235); transform-origin: 404.55px 237.3px;" id="el5wh2wxkpbx3" class="animable"></rect><rect x="417.78" y="226.17" width="10" height="22.26" style="fill: rgb(235, 235, 235); transform-origin: 422.78px 237.3px;" id="elw98o3gbwzn" class="animable"></rect><rect x="381.32" y="261.32" width="10" height="22.26" style="fill: rgb(235, 235, 235); transform-origin: 386.32px 272.45px;" id="el20q0nic3mbzi" class="animable"></rect><rect x="399.55" y="261.32" width="10" height="22.26" style="fill: rgb(235, 235, 235); transform-origin: 404.55px 272.45px;" id="eltjrpzjt5sg" class="animable"></rect><rect x="417.78" y="261.32" width="10" height="22.26" style="fill: rgb(235, 235, 235); transform-origin: 422.78px 272.45px;" id="el3rovp5n0s9q" class="animable"></rect><rect x="381.32" y="296.46" width="10" height="22.26" style="fill: rgb(235, 235, 235); transform-origin: 386.32px 307.59px;" id="elboov99q54eu" class="animable"></rect><rect x="399.55" y="296.46" width="10" height="22.26" style="fill: rgb(235, 235, 235); transform-origin: 404.55px 307.59px;" id="elq4huc4e66q" class="animable"></rect><rect x="417.78" y="296.46" width="10" height="22.26" style="fill: rgb(235, 235, 235); transform-origin: 422.78px 307.59px;" id="elcev1bwgzpd7" class="animable"></rect><rect x="381.32" y="331.61" width="10" height="22.26" style="fill: rgb(235, 235, 235); transform-origin: 386.32px 342.74px;" id="el72cvrmom5ww" class="animable"></rect><rect x="399.55" y="331.61" width="10" height="22.26" style="fill: rgb(235, 235, 235); transform-origin: 404.55px 342.74px;" id="el3rudgd890e2" class="animable"></rect><rect x="417.78" y="331.61" width="10" height="22.26" style="fill: rgb(235, 235, 235); transform-origin: 422.78px 342.74px;" id="el69sgnbv09a" class="animable"></rect><path d="M256.59,122.11h86.09a6.59,6.59,0,0,1,6.59,6.59V382.4a0,0,0,0,1,0,0H250a0,0,0,0,1,0,0V128.7A6.59,6.59,0,0,1,256.59,122.11Z" style="fill: rgb(245, 245, 245); transform-origin: 299.635px 252.255px;" id="elgxnfszpt5x" class="animable"></path><rect x="258.24" y="137.49" width="12.8" height="28.49" style="fill: rgb(235, 235, 235); transform-origin: 264.64px 151.735px;" id="elg4rq5p0mtm8" class="animable"></rect><rect x="328.23" y="137.49" width="12.8" height="28.49" style="fill: rgb(235, 235, 235); transform-origin: 334.63px 151.735px;" id="elnqz9h32dfgk" class="animable"></rect><rect x="281.57" y="137.49" width="12.8" height="28.49" style="fill: rgb(235, 235, 235); transform-origin: 287.97px 151.735px;" id="elbwmefvitkxa" class="animable"></rect><rect x="304.9" y="137.49" width="12.8" height="28.49" style="fill: rgb(235, 235, 235); transform-origin: 311.3px 151.735px;" id="elbnasu7kely5" class="animable"></rect><rect x="258.24" y="182.47" width="12.8" height="28.49" style="fill: rgb(235, 235, 235); transform-origin: 264.64px 196.715px;" id="el99p6fm8d8s" class="animable"></rect><rect x="328.23" y="182.47" width="12.8" height="28.49" style="fill: rgb(235, 235, 235); transform-origin: 334.63px 196.715px;" id="el5cdtus0m43y" class="animable"></rect><rect x="281.57" y="182.47" width="12.8" height="28.49" style="fill: rgb(235, 235, 235); transform-origin: 287.97px 196.715px;" id="eld56034t29r5" class="animable"></rect><rect x="304.9" y="182.47" width="12.8" height="28.49" style="fill: rgb(235, 235, 235); transform-origin: 311.3px 196.715px;" id="elqvfna31rpzm" class="animable"></rect><rect x="258.24" y="227.45" width="12.8" height="28.49" style="fill: rgb(235, 235, 235); transform-origin: 264.64px 241.695px;" id="elmtxp3i8c8gs" class="animable"></rect><rect x="328.23" y="227.45" width="12.8" height="28.49" style="fill: rgb(235, 235, 235); transform-origin: 334.63px 241.695px;" id="elkzy6arbt2p" class="animable"></rect><rect x="281.57" y="227.45" width="12.8" height="28.49" style="fill: rgb(235, 235, 235); transform-origin: 287.97px 241.695px;" id="el792z8hev7mu" class="animable"></rect><rect x="304.9" y="227.45" width="12.8" height="28.49" style="fill: rgb(235, 235, 235); transform-origin: 311.3px 241.695px;" id="elz4yfhw481dk" class="animable"></rect><rect x="258.24" y="272.43" width="12.8" height="28.49" style="fill: rgb(235, 235, 235); transform-origin: 264.64px 286.675px;" id="elijbj3joz57e" class="animable"></rect><rect x="328.23" y="272.43" width="12.8" height="28.49" style="fill: rgb(235, 235, 235); transform-origin: 334.63px 286.675px;" id="elm0rhl2dicee" class="animable"></rect><rect x="281.57" y="272.43" width="12.8" height="28.49" style="fill: rgb(235, 235, 235); transform-origin: 287.97px 286.675px;" id="el4fimrshlpom" class="animable"></rect><rect x="304.9" y="272.43" width="12.8" height="28.49" style="fill: rgb(235, 235, 235); transform-origin: 311.3px 286.675px;" id="elvy96u3dpewn" class="animable"></rect><rect x="258.24" y="317.4" width="12.8" height="28.49" style="fill: rgb(235, 235, 235); transform-origin: 264.64px 331.645px;" id="el7aj43zui9z" class="animable"></rect><rect x="328.23" y="317.4" width="12.8" height="28.49" style="fill: rgb(235, 235, 235); transform-origin: 334.63px 331.645px;" id="el1nj6zqctdbt" class="animable"></rect><rect x="281.57" y="317.4" width="12.8" height="28.49" style="fill: rgb(235, 235, 235); transform-origin: 287.97px 331.645px;" id="elbz4uvy6wlv8" class="animable"></rect><rect x="304.9" y="317.4" width="12.8" height="28.49" style="fill: rgb(235, 235, 235); transform-origin: 311.3px 331.645px;" id="elkakp2ab0bwa" class="animable"></rect><rect x="195.31" y="215.33" width="54.69" height="167.07" style="fill: rgb(230, 230, 230); transform-origin: 222.655px 298.865px;" id="elmiouacxu9y" class="animable"></rect><rect x="349.28" y="233.22" width="24.16" height="149.18" style="fill: rgb(230, 230, 230); transform-origin: 361.36px 307.81px;" id="elow2tq2xth1h" class="animable"></rect><polygon points="109.97 382.4 62.11 382.4 62.11 312.65 109.97 296.46 109.97 382.4" style="fill: rgb(230, 230, 230); transform-origin: 86.04px 339.43px;" id="elbq776ys2qvj" class="animable"></polygon><path d="M421,94.38c7.83-6.53,23.76-19.27,10.06-21.09-13.16-1.75-32.55,5.95-38.74,12.71,0-6.47-3.05-12.63-14.67-17.61C359.77,60.71,357,88.62,357.94,93.74c-7.19-3.45-29.89-2.81-14.24,6.92h79.44S439.54,90.41,421,94.38Z" style="fill: rgb(245, 245, 245); transform-origin: 387.369px 83.8609px;" id="el4o3vvpfesjb" class="animable"></path><path d="M62.6,128c-.06-3.72-.46-11,6.12-12,6.32-1,10.61,3.39,9.89,7.24,3.16-3.69,7.42-7.19,14.68-10,11.19-4.38-1.26,11.52-4.16,14.44,4.67-2,13.79-1.61,2.54,3.93h-33S56.86,125.73,62.6,128Z" style="fill: rgb(250, 250, 250); transform-origin: 78.1368px 122.046px;" id="elk3sqe682phq" class="animable"></path><path d="M201.07,83.86H94.77s6.16-7.48,15.78-5.12c-4.53-5.77-6.94-27.4,8.22-30.1,7.71-1.37,16.81,12.65,17,20,3.8-17.59,14.3-39.94,30.42-35.56s3.63,36.3,3.63,36.3,15.49-22.56,28.35-12.55c7.66,6-6.72,19.68-6.72,19.68S209.06,76.38,201.07,83.86Z" style="fill: rgb(245, 245, 245); transform-origin: 148.96px 58.1915px;" id="elhohhc07e7k5" class="animable"></path></g><g id="freepik--Shadow--inject-29" class="animable" style="transform-origin: 250px 416.24px;"><ellipse id="freepik--path--inject-29" cx="250" cy="416.24" rx="193.89" ry="11.32" style="fill: rgb(245, 245, 245); transform-origin: 250px 416.24px;" class="animable"></ellipse></g><g id="freepik--Truck--inject-29" class="animable" style="transform-origin: 250px 306.373px;"><path d="M198.19,339.63a21.39,21.39,0,0,0,0,42.77h4.28V339.63Z" style="fill: rgb(38, 50, 56); transform-origin: 189.866px 361.015px;" id="elg68ns002b9t" class="animable"></path><path d="M354,339.63a21.39,21.39,0,1,0,0,42.77h4.27V339.63Z" style="fill: rgb(38, 50, 56); transform-origin: 345.209px 361.015px;" id="elu7lljm3hw" class="animable"></path><circle cx="283.4" cy="361.01" r="21.38" style="fill: rgb(38, 50, 56); transform-origin: 283.4px 361.01px;" id="elcno6v9lpvae" class="animable"></circle><circle cx="127.58" cy="361.01" r="21.38" style="fill: rgb(38, 50, 56); transform-origin: 127.58px 361.01px;" id="elsu26m3zpn8" class="animable"></circle><rect x="225.49" y="247.66" width="81.13" height="103.08" style="fill: rgb(126, 87, 194); transform-origin: 266.055px 299.2px;" id="elnti1vscui1" class="animable"></rect><g id="elm7fsk24gsjn"><rect x="225.49" y="247.66" width="81.13" height="103.08" style="opacity: 0.2; transform-origin: 266.055px 299.2px;" class="animable"></rect></g><g id="el9tulx6cybvf"><rect x="389.25" y="273" width="1" height="4.98" style="fill: rgb(126, 87, 194); transform-origin: 389.75px 275.49px; transform: rotate(-40.43deg);" class="animable"></rect></g><g id="elviydftqo5a"><rect x="379.5" y="256.3" width="1" height="15.51" style="fill: rgb(126, 87, 194); transform-origin: 380px 264.055px; transform: rotate(-40.44deg);" class="animable"></rect></g><path d="M306.62,350.73H407.38V306a13.94,13.94,0,0,0-3.34-9.06L372.69,260.1a35.39,35.39,0,0,0-26.95-12.44H306.62Z" style="fill: rgb(126, 87, 194); transform-origin: 357px 299.195px;" id="el8ngb6fprvrk" class="animable"></path><path d="M323.13,301.75v-37.9a6.21,6.21,0,0,1,6.22-6.21H339a34.9,34.9,0,0,1,26.56,12.26l23.71,27.82a6.18,6.18,0,0,1,1.48,4h0a6.22,6.22,0,0,1-6.21,6.22H329.35A6.22,6.22,0,0,1,323.13,301.75Z" style="fill: rgb(255, 255, 255); transform-origin: 356.94px 282.79px;" id="elsf9qd0t6hml" class="animable"></path><path d="M407.38,338.55H394.94a3.86,3.86,0,0,1-3.37-5.74l2.1-3.76a3.86,3.86,0,0,1,3.37-2h10.34Z" style="fill: rgb(255, 255, 255); transform-origin: 399.231px 332.8px;" id="el87tlrtfks2j" class="animable"></path><rect x="92.62" y="230.34" width="196.09" height="120.39" style="fill: rgb(126, 87, 194); transform-origin: 190.665px 290.535px;" id="el6vxgct5v8d8" class="animable"></rect><g id="elm52omi89y"><rect x="92.62" y="230.34" width="196.09" height="120.39" style="fill: rgb(255, 255, 255); opacity: 0.6; transform-origin: 190.665px 290.535px;" class="animable"></rect></g><g id="el0vulhn6m375f"><rect x="145.72" y="332.38" width="33.37" height="7.25" style="fill: rgb(126, 87, 194); opacity: 0.5; transform-origin: 162.405px 336.005px;" class="animable"></rect></g><g id="el808cuf8u0fs"><rect x="92.62" y="332.38" width="9.16" height="7.25" style="fill: rgb(126, 87, 194); opacity: 0.5; transform-origin: 97.2px 336.005px;" class="animable"></rect></g><g id="elfkl9w71r86p"><rect x="92.62" y="230.34" width="67.74" height="120.39" style="fill: rgb(126, 87, 194); opacity: 0.4; transform-origin: 126.49px 290.535px;" class="animable"></rect></g><g id="elve70y1o9f"><rect x="121.97" y="230.34" width="1.09" height="120.39" style="fill: rgb(126, 87, 194); opacity: 0.4; transform-origin: 122.515px 290.535px;" class="animable"></rect></g><rect x="90" y="350.73" width="320" height="8.35" rx="1.64" style="fill: rgb(38, 50, 56); transform-origin: 250px 354.905px;" id="elfwswtznittb" class="animable"></rect><circle cx="358.29" cy="361.01" r="21.38" style="fill: rgb(38, 50, 56); transform-origin: 358.29px 361.01px;" id="elivn7vyp60bm" class="animable"></circle><circle cx="358.29" cy="361.01" r="13.76" style="fill: rgb(255, 255, 255); transform-origin: 358.29px 361.01px;" id="eliy78hbtcj3s" class="animable"></circle><circle cx="202.47" cy="361.01" r="21.38" style="fill: rgb(38, 50, 56); transform-origin: 202.47px 361.01px;" id="el0isdnz1ylvm9" class="animable"></circle><circle cx="202.47" cy="361.01" r="13.76" style="fill: rgb(255, 255, 255); transform-origin: 202.47px 361.01px;" id="el8b5rn12jm9a" class="animable"></circle></g><g id="freepik--Character--inject-29" class="animable animator-active" style="transform-origin: 226.785px 254.258px;"><polygon points="230.34 407.53 221.84 407.4 219.53 387.69 228.02 387.83 230.34 407.53" style="fill: rgb(126, 87, 194); transform-origin: 224.935px 397.61px;" id="elpjlmbe2voa8" class="animable"></polygon><path d="M221.62,406.42l9.26.14a.66.66,0,0,1,.66.59l.81,7.58a1.38,1.38,0,0,1-1.4,1.49c-3.33-.11-8.14-.38-12.34-.44-4.91-.08-4.43.12-10.19,0-3.48-.05-4-3.6-2.54-3.89,6.8-1.35,7.48-1.42,13.62-4.87A4.24,4.24,0,0,1,221.62,406.42Z" style="fill: rgb(38, 50, 56); transform-origin: 218.735px 411.32px;" id="elp19v9jz149" class="animable"></path><path d="M213.32,153.51c-2.78,5.94-5.76,11.55-9.07,17.15-1.66,2.78-3.37,5.55-5.22,8.27-.9,1.36-1.87,2.71-2.83,4.06s-2,2.68-3.11,4l-.82,1a15.8,15.8,0,0,1-1.34,1.46,10,10,0,0,1-1,.86,9.15,9.15,0,0,1-1.22.79,9.74,9.74,0,0,1-3,1.07,10.2,10.2,0,0,1-5.66-.68,14.49,14.49,0,0,1-3.41-2.08,23.93,23.93,0,0,1-4.14-4.41,50.2,50.2,0,0,1-2.92-4.42,81,81,0,0,1-4.45-8.95,93.06,93.06,0,0,1-3.37-9.23,3.5,3.5,0,0,1,6.3-2.88l.06.09a166.1,166.1,0,0,0,10.26,15,39.38,39.38,0,0,0,2.76,3.14,15.61,15.61,0,0,0,2.59,2.19c.36.21.65.31.67.27s-.36-.23-1-.16a3.28,3.28,0,0,0-1.2.46c-.05,0-.1.07.19-.33l.62-.89a176.8,176.8,0,0,0,9.23-15.46c2.92-5.36,5.79-10.92,8.52-16.31l0-.1a7,7,0,0,1,12.59,6.13Z" style="fill: rgb(126, 87, 194); transform-origin: 187.838px 167.895px;" id="eln9ap87wlms" class="animable"></path><path d="M168.39,162l-2.28-9.46-8.89,3.83s.79,7.51,7,8.44Z" style="fill: rgb(38, 50, 56); transform-origin: 162.805px 158.675px;" id="elgma3jkhm26a" class="animable"></path><path d="M167.92,159.67s2.89,3.72,3.6,4.74c-1,1-7.55,4.31-8.07,4-.83-2.37-2-5.5-2-5.5Z" style="fill: rgb(38, 50, 56); transform-origin: 166.485px 164.05px;" id="eltv7llphduso" class="animable"></path><path d="M159.46,146.52l-3.27,3.14a2,2,0,0,0-.51,2l1.54,4.67,8.89-3.83-3.65-5.65A2,2,0,0,0,159.46,146.52Z" style="fill: rgb(38, 50, 56); transform-origin: 160.853px 151.16px;" id="elwt5se7vhdio" class="animable"></path><path d="M164.5,157.57c-.31-1.92,1.61-7.94,3.22-8.8s.69,3.29.9,4.69c.58,3.84.78,7.5-1.19,7.3S165,160.91,164.5,157.57Z" style="fill: rgb(38, 50, 56); transform-origin: 166.743px 154.711px;" id="elqolz935sfs" class="animable"></path><g id="el11j7q9r1ffli"><polygon points="219.53 387.7 220.72 397.86 229.22 397.99 228.03 387.83 219.53 387.7" style="opacity: 0.2; transform-origin: 224.375px 392.845px;" class="animable"></polygon></g><path d="M206.45,142.16c16.16-2,31.8.16,40.32,1.81a6.59,6.59,0,0,1,5.18,7.84c-6.34,30.3-5.35,60.78-5.88,67.26l-45.44-.73c-3.11-37.15-1.15-60.81.05-70.46A6.61,6.61,0,0,1,206.45,142.16Z" style="fill: rgb(126, 87, 194); transform-origin: 225.526px 180.213px;" id="el1hswdrssjec" class="animable"></path><path d="M235.15,120.74c-1.44,6.11-3.08,17.37,1.12,21.83-3.5,3.1-8.06,6.64-15.45,6.35s-5.91-5.25-3.86-7.78c7-1.14,7-6.28,6-11.18Z" style="fill: rgb(255, 181, 115); transform-origin: 225.781px 134.838px;" id="elx3fkj3zy0g" class="animable"></path><g id="elrkrvzvj0td"><path d="M230.17,124.5,222.93,130a20,20,0,0,1,.47,3.46c2.66-.18,6.4-2.81,6.79-5.55A9.39,9.39,0,0,0,230.17,124.5Z" style="opacity: 0.2; transform-origin: 226.633px 128.98px;" class="animable"></path></g><path d="M237.21,111.47c-1.07,8.35-1.26,13.3-5.79,17.29-6.8,6-16.91,1.39-18.37-7.13-1.31-7.68.65-20,9.09-22.78A11.61,11.61,0,0,1,237.21,111.47Z" style="fill: rgb(255, 181, 115); transform-origin: 224.998px 114.885px;" id="el2db7ya25e2k" class="animable"></path><path d="M237.7,118.72c-3.3,2-7.07,1-7.38-1.1s2.14-5.73,3.06-7.5c-.26-3-2.38-3.88-2-6-2.47.23-15.94.84-15.62-2.2s5.66-6.17,12-5.38,10.49,3.55,9.89,7.41C241.19,103.38,242.82,109.37,237.7,118.72Z" style="fill: rgb(38, 50, 56); transform-origin: 228.353px 108.11px;" id="elaaz8skj1x56" class="animable"></path><path d="M240.65,120a7.94,7.94,0,0,1-5,3.52c-2.74.59-4-1.9-3.09-4.4.79-2.26,3.17-5.28,5.87-4.75A3.62,3.62,0,0,1,240.65,120Z" style="fill: rgb(255, 181, 115); transform-origin: 236.789px 118.958px;" id="el2o17fm87pp2" class="animable"></path><path d="M227,302.66c-.34-42.72,9.11-83.75,9.11-83.75l-35.42-.57s4.07,61.7,5.49,87.55c1.47,26.87,11.18,90,11.18,90l14.38.21S229,336.38,227,302.66Z" style="fill: rgb(126, 87, 194); transform-origin: 218.4px 307.22px;" id="elxpk3msu8479" class="animable"></path><g id="eli54jsggwer"><path d="M227,302.66c-.34-42.72,9.11-83.75,9.11-83.75l-35.42-.57s4.07,61.7,5.49,87.55c1.47,26.87,11.18,90,11.18,90l14.38.21S229,336.38,227,302.66Z" style="opacity: 0.4; transform-origin: 218.4px 307.22px;" class="animable"></path></g><g id="eloisqk8aiv7m"><path d="M228.38,242.42c-10.1,13.82-5.56,39.82-1.42,58.2a395.55,395.55,0,0,1,5.15-60.49Z" style="opacity: 0.2; transform-origin: 227.189px 270.375px;" class="animable"></path></g><polygon points="215.44 390.29 216.37 396.15 232.27 396.42 233.17 390.88 215.44 390.29" style="fill: rgb(38, 50, 56); transform-origin: 224.305px 393.355px;" id="elawjoh2510dk" class="animable"></polygon><path d="M226,112.87c0,.68-.44,1.21-.89,1.17s-.77-.61-.72-1.29.44-1.21.89-1.18S226.08,112.18,226,112.87Z" style="fill: rgb(38, 50, 56); transform-origin: 225.198px 112.805px;" id="elf8e0wpylui" class="animable"></path><path d="M217.19,111.88c0,.69-.44,1.21-.89,1.18s-.77-.62-.72-1.3.44-1.21.89-1.18S217.24,111.2,217.19,111.88Z" style="fill: rgb(38, 50, 56); transform-origin: 216.385px 111.82px;" id="elc57ye3n6iyh" class="animable"></path><path d="M219,112.43a24,24,0,0,1-3.65,5.6,4,4,0,0,0,3.23.86Z" style="fill: rgb(237, 137, 62); transform-origin: 217.175px 115.689px;" id="elqm3d6exiutn" class="animable"></path><path d="M221.36,121.31a5.55,5.55,0,0,0,4-2,.2.2,0,1,0-.32-.24,5.35,5.35,0,0,1-4.55,1.78.21.21,0,1,0,0,.41A6.6,6.6,0,0,0,221.36,121.31Z" style="fill: rgb(38, 50, 56); transform-origin: 222.818px 120.15px;" id="elo0q5uhrpfl" class="animable"></path><path d="M227.44,110.58a.35.35,0,0,0,.19-.06.4.4,0,0,0,.11-.56,4,4,0,0,0-3.16-1.9.4.4,0,0,0-.4.4.41.41,0,0,0,.41.41h0a3.22,3.22,0,0,1,2.48,1.53A.4.4,0,0,0,227.44,110.58Z" style="fill: rgb(38, 50, 56); transform-origin: 225.995px 109.321px;" id="el2q81zag18rh" class="animable"></path><path d="M213.4,108.71a.39.39,0,0,0,.35-.13,3.16,3.16,0,0,1,2.66-1.16.41.41,0,0,0,.45-.35.4.4,0,0,0-.35-.45,4,4,0,0,0-3.37,1.43.4.4,0,0,0,.05.56A.35.35,0,0,0,213.4,108.71Z" style="fill: rgb(38, 50, 56); transform-origin: 214.956px 107.662px;" id="el15olv9w169k" class="animable"></path><polygon points="275.36 407.53 266.85 407.4 263.35 387.69 271.86 387.83 275.36 407.53" style="fill: rgb(126, 87, 194); transform-origin: 269.355px 397.61px;" id="eljoc03qy1le" class="animable"></polygon><path d="M266.39,406.42l9.26.14a.69.69,0,0,1,.68.59l1.07,7.58a1.32,1.32,0,0,1-1.34,1.49c-3.34-.11-4.39-.38-8.59-.44-4.92-.08-2.64.12-8.41,0-3.48-.05-4.16-3.58-2.68-3.89,4.68-1,5.85-2.87,7.91-4.87A2.9,2.9,0,0,1,266.39,406.42Z" style="fill: rgb(38, 50, 56); transform-origin: 266.527px 411.312px;" id="eluw4vpj8px7" class="animable"></path><path d="M268.16,407.31c-1.47.05-2.26,0-2.64-.67s-1.71-2.62-1.61-3.35,6.07-1.33,6.66-.15S271.16,407.23,268.16,407.31Z" style="fill: rgb(38, 50, 56); transform-origin: 267.391px 404.898px;" id="elkdbmgwbaawj" class="animable"></path><path d="M221.3,407.31c-.92.05-1.41,0-1.63-.67a13.47,13.47,0,0,1-.94-3.35c.07-.74,3.82-1.33,4.17-.15S223.17,407.23,221.3,407.31Z" style="fill: rgb(38, 50, 56); transform-origin: 220.896px 404.897px;" id="elwy6istnopjn" class="animable"></path><g id="el83nh62h5s93"><polygon points="263.35 387.7 265.16 397.86 273.67 397.99 271.86 387.83 263.35 387.7" style="opacity: 0.2; transform-origin: 268.51px 392.845px;" class="animable"></polygon></g><path d="M260.81,297.61c-4-38.48-8.7-70-14.72-78.54L216,218.59s17.55,60.36,24.31,85.8c7,26.45,20.81,88.94,20.81,88.94l13.7.19S269.15,327.67,260.81,297.61Z" style="fill: rgb(126, 87, 194); transform-origin: 245.41px 306.055px;" id="el15eswjaqz2v" class="animable"></path><g id="elxrvdfay86l"><path d="M260.81,297.61c-4-38.48-8.7-70-14.72-78.54L216,218.59s17.55,60.36,24.31,85.8c7,26.45,20.81,88.94,20.81,88.94l13.7.19S269.15,327.67,260.81,297.61Z" style="opacity: 0.4; transform-origin: 245.41px 306.055px;" class="animable"></path></g><polygon points="259.4 390.29 260.51 396.15 275.89 396.42 276.57 390.88 259.4 390.29" style="fill: rgb(38, 50, 56); transform-origin: 267.985px 393.355px;" id="el542g89o70ze" class="animable"></polygon><path d="M226.17,155.1c-.09-2.14-2.55-5-4.15-6.17,11.85-3.27,14.07-7.57,14.07-7.57a9.69,9.69,0,0,1,2.43,1C239.22,149,231,153.57,226.17,155.1Z" style="fill: rgb(255, 255, 255); transform-origin: 230.291px 148.23px;" id="elxdt1ykaqo0n" class="animable"></path><path d="M219.18,148.76a13.44,13.44,0,0,0-6.21,5.9c-4.93-8.8,2-13.88,2-13.88a5.74,5.74,0,0,1,2.36-.16C216,143.56,217.53,147.43,219.18,148.76Z" style="fill: rgb(255, 255, 255); transform-origin: 215.19px 147.612px;" id="elkd6965sb2p" class="animable"></path><g id="elm4zyyzr9vpb"><rect x="218.03" y="164.41" width="76.17" height="55.2" style="fill: rgb(126, 87, 194); transform-origin: 256.115px 192.01px; transform: rotate(-8.79deg);" class="animable"></rect></g><g id="ellrjbfp3o95g"><rect x="218.03" y="164.41" width="76.17" height="55.2" style="fill: rgb(255, 255, 255); opacity: 0.9; transform-origin: 256.115px 192.01px; transform: rotate(-8.79deg);" class="animable"></rect></g><g id="elhnxrgp7pfrt"><rect x="254.28" y="161.62" width="39.71" height="55.2" style="fill: rgb(126, 87, 194); opacity: 0.2; transform-origin: 274.135px 189.22px; transform: rotate(-8.79deg);" class="animable"></rect></g><g id="elv9vvzf75pr"><rect x="225.88" y="208.57" width="9.56" height="9.32" style="fill: rgb(126, 87, 194); opacity: 0.3; transform-origin: 230.66px 213.23px; transform: rotate(-8.79deg);" class="animable"></rect></g><g id="ell0q6rt9l42e"><rect x="224.12" y="197.14" width="9.56" height="9.32" style="fill: rgb(126, 87, 194); opacity: 0.3; transform-origin: 228.9px 201.8px; transform: rotate(-8.79deg);" class="animable"></rect></g><g id="elccror5b7m0l"><rect x="225.48" y="167.81" width="13.48" height="4.65" style="fill: rgb(126, 87, 194); opacity: 0.5; transform-origin: 232.22px 170.135px; transform: rotate(-8.79deg);" class="animable"></rect></g><g id="elj22cw8i6pnf"><rect x="271.13" y="161.05" width="9.47" height="4.65" style="fill: rgb(126, 87, 194); opacity: 0.5; transform-origin: 275.865px 163.375px; transform: rotate(-8.79deg);" class="animable"></rect></g><path d="M249.23,145a133.29,133.29,0,0,1,16.65,9.48,78.75,78.75,0,0,1,8,6,41.83,41.83,0,0,1,3.92,3.87,24.39,24.39,0,0,1,1.93,2.56,14.78,14.78,0,0,1,1.77,3.67,10.47,10.47,0,0,1,.5,2.72,2.7,2.7,0,0,1,0,.48v.34l0,.69-.05,1.38-.12,1.29c-.08.86-.17,1.72-.31,2.53s-.23,1.65-.39,2.44c-.53,3.23-1.31,6.3-2.09,9.36a150.42,150.42,0,0,1-6,17.83,3.49,3.49,0,0,1-6.7-1.73v-.08c.71-6,1.58-12.06,2.21-18,.35-3,.62-5.93.8-8.8.06-.72.06-1.41.1-2.12s0-1.39,0-2.06v-1l0-.92,0-.46v-.23s0-.23,0-.1a4.69,4.69,0,0,0,0,.48c0,.11-.11-.11-.35-.38a10.28,10.28,0,0,0-1-1,29.41,29.41,0,0,0-2.79-2.4c-2.12-1.61-4.5-3.19-6.95-4.7-4.91-3-10.19-5.88-15.34-8.61l-.07,0a7,7,0,0,1,6.29-12.5Z" style="fill: rgb(126, 87, 194); transform-origin: 260.649px 178.099px;" id="elg0vxz8ngdpo" class="animable"></path><path d="M267.07,206.31l-5.1,6.92,9.68,3.54s3.86-6.83.56-9.46Z" style="fill: rgb(38, 50, 56); transform-origin: 267.757px 211.54px;" id="eluybi2d02vxl" class="animable"></path><path d="M263.25,222.07l3.6.67a3,3,0,0,0,3.34-1.92l1.46-4L262,213.23l-1.1,5.31A3,3,0,0,0,263.25,222.07Z" style="fill: rgb(38, 50, 56); transform-origin: 266.246px 218.008px;" id="elrwgbisgt36f" class="animable"></path><path d="M266.23,208.23s.18-4.71.3-5.94c1.41-.09,8.55,1.56,8.73,2.14-.88,2.36-2,5.5-2,5.5Z" style="fill: rgb(38, 50, 56); transform-origin: 270.745px 206.108px;" id="ellxah135dpd" class="animable"></path><path d="M241.81,110c-4.83-.54-24.67-5.37-26.51-7.28-.13-3.69,2-7.42,3.31-8.26,3.65-2.4,11.68-2.49,14.23-1.77s9.53,4.27,10.69,7.69C244.43,103.09,241.81,110,241.81,110Z" style="fill: rgb(126, 87, 194); transform-origin: 229.506px 101.148px;" id="elu8upika03s" class="animable"></path><path d="M221.78,101.57c-6.09-.95-11.88-.53-13.93,2.55-2.29,3.44,5.25-1.67,9.75.53,7.53,3.7,5.74,4.28,17.15,4C228.88,105.67,228.84,102.67,221.78,101.57Z" style="fill: rgb(126, 87, 194); transform-origin: 221.088px 104.915px;" id="elmp9fef1yvjn" class="animable"></path><g id="eld2886gv1hs"><path d="M221.78,101.57c-6.09-.95-11.88-.53-13.93,2.55-2.29,3.44,5.25-1.67,9.75.53,7.53,3.7,5.74,4.28,17.15,4C228.88,105.67,228.84,102.67,221.78,101.57Z" style="fill: rgb(255, 255, 255); opacity: 0.6; transform-origin: 221.088px 104.915px;" class="animable"></path></g><path d="M235.36,115.89a.57.57,0,0,0,.14-.78.56.56,0,0,0-.78-.13,39.81,39.81,0,0,0-5.81,4.89c-2.18-2.27-8.31-4.66-11.52-4.61-2.29,0-3.81-.11-5.52,1.58-1.46,1.43-.25,9,.67,11.14a8.55,8.55,0,0,0,5.71,4.77c3.38.61,10.6,1,10.9-3.94a22.88,22.88,0,0,1,.43-3.3,9.08,9.08,0,0,0,1.45.13,6.51,6.51,0,0,0,4.06-1.31.55.55,0,0,0,.1-.78.56.56,0,0,0-.79-.1,6,6,0,0,1-4.58,1c.32-1.46.48-2.4-.23-3.62A38,38,0,0,1,235.36,115.89Z" style="fill: rgb(126, 87, 194); transform-origin: 223.394px 123.989px;" id="el5adsggh2qtc" class="animable"></path><g id="el5awmxc6kn53"><path d="M235.36,115.89a.57.57,0,0,0,.14-.78.56.56,0,0,0-.78-.13,39.81,39.81,0,0,0-5.81,4.89c-2.18-2.27-8.31-4.66-11.52-4.61-2.29,0-3.81-.11-5.52,1.58-1.46,1.43-.25,9,.67,11.14a8.55,8.55,0,0,0,5.71,4.77c3.38.61,10.6,1,10.9-3.94a22.88,22.88,0,0,1,.43-3.3,9.08,9.08,0,0,0,1.45.13,6.51,6.51,0,0,0,4.06-1.31.55.55,0,0,0,.1-.78.56.56,0,0,0-.79-.1,6,6,0,0,1-4.58,1c.32-1.46.48-2.4-.23-3.62A38,38,0,0,1,235.36,115.89Z" style="fill: rgb(255, 255, 255); opacity: 0.6; transform-origin: 223.394px 123.989px;" class="animable"></path></g></g><defs>     <filter id="active" height="200%">         <feMorphology in="SourceAlpha" result="DILATED" operator="dilate" radius="2"></feMorphology>                <feFlood flood-color="#32DFEC" flood-opacity="1" result="PINK"></feFlood>        <feComposite in="PINK" in2="DILATED" operator="in" result="OUTLINE"></feComposite>        <feMerge>            <feMergeNode in="OUTLINE"></feMergeNode>            <feMergeNode in="SourceGraphic"></feMergeNode>        </feMerge>    </filter>    <filter id="hover" height="200%">        <feMorphology in="SourceAlpha" result="DILATED" operator="dilate" radius="2"></feMorphology>                <feFlood flood-color="#ff0000" flood-opacity="0.5" result="PINK"></feFlood>        <feComposite in="PINK" in2="DILATED" operator="in" result="OUTLINE"></feComposite>        <feMerge>            <feMergeNode in="OUTLINE"></feMergeNode>            <feMergeNode in="SourceGraphic"></feMergeNode>        </feMerge>            <feColorMatrix type="matrix" values="0   0   0   0   0                0   1   0   0   0                0   0   0   0   0                0   0   0   1   0 "></feColorMatrix>    </filter></defs></svg>